HIERARCHY
ROOT Hips
{
	OFFSET 0.000000 0.000000 0.000000
	CHANNELS 6 Xposition Yposition Zposition Zrotation Yrotation Xrotation 
	JOINT LHipJoint
	{
		OFFSET 0.000000 0.000000 0.000000
		CHANNELS 3 Zrotation Yrotation Xrotation
		JOINT LeftUpLeg
		{
			OFFSET 1.363060 -1.794630 0.839290
			CHANNELS 3 Zrotation Yrotation Xrotation
			JOINT LeftLeg
			{
				OFFSET 2.448110 -6.726130 0.000000
				CHANNELS 3 Zrotation Yrotation Xrotation
				JOINT LeftFoot
				{
					OFFSET 2.562200 -7.039590 0.000000
					CHANNELS 3 Zrotation Yrotation Xrotation
					JOINT LeftToeBase
					{
						OFFSET 0.157640 -0.433110 2.322550
						CHANNELS 3 Zrotation Yrotation Xrotation
						End Site
						{
							OFFSET 0.000000 0.000000 0.000000
						}
					}
				}
			}
		}
	}
	JOINT RHipJoint
	{
		OFFSET 0.000000 0.000000 0.000000
		CHANNELS 3 Zrotation Yrotation Xrotation
		JOINT RightUpLeg
		{
			OFFSET -1.305520 -1.794630 0.839290
			CHANNELS 3 Zrotation Yrotation Xrotation
			JOINT RightLeg
			{
				OFFSET -2.542530 -6.985550 0.000000
				CHANNELS 3 Zrotation Yrotation Xrotation
				JOINT RightFoot
				{
					OFFSET -2.568260 -7.056230 0.000000
					CHANNELS 3 Zrotation Yrotation Xrotation
					JOINT RightToeBase
					{
						OFFSET -0.164730 -0.452590 2.363150
						CHANNELS 3 Zrotation Yrotation Xrotation
						End Site
						{
							OFFSET 0.000000 0.000000 0.000000
						}
					}
				}
			}
		}
	}
}
MOTION
Frames: 25
Frame Time: 0.008333
4.871992 16.857470 -5.739975 177.975051 29.030702 -172.252003 -7.789086 2.609033 1.558649 -24.156917 12.140161 -35.070575 -4.038887 -0.569130 9.449402 1.090319 7.201631 0.109267 1.465500 0.000001 -9.821100 12.193647 -3.532260 -2.039273 -4.472550 -22.586237 6.841340 0.325026 -1.038946 15.985836 -1.322630 -8.751772 12.541833 -3.165500 -0.000000 -85.351000
4.927197 16.876959 -5.887124 177.652201 28.611560 -172.479275 -7.708566 2.698861 1.617712 -24.281657 11.703648 -34.276346 -4.016326 -0.546189 9.609471 1.075675 7.242823 0.382817 1.508800 -0.000000 -9.501900 12.393287 -3.485731 -2.022845 -5.081055 -22.571912 6.289213 0.099282 -1.195707 17.833473 -1.463157 -9.319657 14.413522 -3.559101 0.000000 -86.175000
4.977898 16.896695 -6.032944 177.371132 28.211626 -172.658172 -7.640559 2.761037 1.682975 -24.344699 11.197820 -33.456537 -3.989121 -0.541392 9.736818 1.082591 7.332740 0.379481 1.519500 0.000000 -9.090000 12.564828 -3.414863 -1.999998 -5.557509 -22.435398 5.606709 -0.123347 -1.340431 19.860339 -1.640968 -10.071455 16.242118 -4.043300 -0.000000 -86.279200
5.023959 16.916426 -6.177077 177.140249 27.834762 -172.785435 -7.587069 2.799039 1.745967 -24.364625 10.678133 -32.636140 -3.961205 -0.552057 9.831625 1.104860 7.442398 0.134799 1.496700 -0.000000 -8.616500 12.705465 -3.323334 -1.965913 -5.887940 -22.169965 4.792615 -0.331468 -1.471429 22.058939 -1.846116 -10.974927 17.946148 -4.609100 0.000000 -85.486800
5.066291 16.935860 -6.318496 176.936700 27.483245 -172.889602 -7.542085 2.819942 1.794567 -24.378896 10.201346 -31.796139 -3.938127 -0.577374 9.863099 1.135726 7.551506 -0.285216 1.444500 -0.000000 -8.113100 12.824409 -3.212313 -1.923180 -6.114266 -21.797577 3.871713 -0.516786 -1.590621 24.405521 -2.064718 -11.966164 19.455655 -5.225800 -0.000000 -83.960900
5.104779 16.955026 -6.457325 176.779320 27.160240 -172.956403 -7.511083 2.828217 1.824060 -24.388427 9.820857 -30.977653 -3.922000 -0.612361 9.843654 1.166696 7.618666 -0.826833 1.363700 0.000000 -7.620700 12.914995 -3.092589 -1.867168 -6.208762 -21.314851 2.838513 -0.670479 -1.701656 26.880846 -2.282173 -12.991755 20.670705 -5.853200 -0.000000 -81.573200
5.140043 16.973866 -6.593241 176.662407 26.866415 -172.995520 -7.493410 2.830187 1.828781 -24.405105 9.578870 -30.185970 -3.915601 -0.653853 9.764221 1.189592 7.614295 -1.422091 1.260900 0.000000 -7.177900 12.980351 -2.971811 -1.799264 -6.185974 -20.739405 1.707564 -0.790952 -1.810258 29.447583 -2.485020 -13.988106 21.528175 -6.440700 0.000000 -78.602500
5.172502 16.992483 -6.726119 176.582974 26.600211 -173.016010 -7.488677 2.831288 1.804884 -24.435218 9.505175 -29.421319 -3.920446 -0.698804 9.618016 1.196874 7.513096 -2.007809 1.144901 -0.000000 -6.819300 13.024016 -2.857081 -1.722702 -6.064953 -20.092354 0.495960 -0.880930 -1.922681 32.068941 -2.661362 -14.886791 21.976436 -6.929600 0.000000 -75.248200
5.202720 17.010942 -6.855968 176.537638 26.358819 -173.021996 -7.497635 2.835372 1.752107 -24.475520 9.612141 -28.690039 -3.936974 -0.743998 9.408160 1.182332 7.293803 -2.533686 1.024300 0.000001 -6.571800 13.048482 -2.754255 -1.639529 -5.854648 -19.389767 -0.782411 -0.946816 -2.043114 34.703557 -2.803938 -15.638520 21.992962 -7.273500 -0.000000 -71.762900
5.230830 17.029363 -6.983042 176.529709 26.136167 -173.012377 -7.521859 2.844199 1.672937 -24.516844 9.894696 -27.998437 -3.963995 -0.786779 9.142926 1.142335 6.944579 -2.964904 0.906599 0.000000 -6.450200 13.055364 -2.666779 -1.550892 -5.560493 -18.642588 -2.113623 -0.996486 -2.172635 37.307018 -2.910374 -16.218800 21.591233 -7.448600 -0.000000 -68.464200
5.257355 17.047785 -7.107464 176.552201 25.925701 -172.991070 -7.560957 2.858321 1.571753 -24.550623 10.330333 -27.343578 -4.000003 -0.825706 8.828969 1.076342 6.466112 -3.281729 0.797300 0.000001 -6.454200 13.047922 -2.594650 -1.459123 -5.195739 -17.865560 -3.482930 -1.036677 -2.310567 39.843686 -2.979477 -16.605435 20.791498 -7.438700 0.000000 -65.437700
5.282300 17.066230 -7.229631 176.606418 25.719508 -172.955677 -7.615217 2.876396 1.455004 -24.564935 10.882788 -26.722493 -4.041970 -0.860151 8.476287 0.987113 5.870815 -3.481841 0.698900 0.000000 -6.571500 13.027631 -2.536074 -1.365286 -4.769273 -17.067672 -4.877365 -1.072133 -2.453635 42.277187 -3.013542 -16.802476 19.641928 -7.254100 -0.000000 -62.804500
5.306027 17.084645 -7.349804 176.685725 25.509851 -172.906234 -7.683419 2.896333 1.330336 -24.549497 11.505660 -26.127861 -4.086827 -0.890676 8.092249 0.880154 5.182862 -3.575943 0.611600 0.000000 -6.780700 12.996351 -2.487364 -1.270370 -4.292029 -16.258154 -6.285103 -1.105149 -2.597532 44.576019 -3.016283 -16.825196 18.201408 -6.919101 -0.000000 -60.595900
5.328616 17.102887 -7.468219 176.785827 25.289842 -172.841991 -7.763720 2.915553 1.205481 -24.496871 12.148838 -25.548627 -4.131126 -0.918696 7.682030 0.762715 4.434748 -3.585107 0.534000 0.000000 -7.056400 12.955401 -2.444073 -1.175351 -3.776777 -15.445368 -7.696000 -1.135747 -2.737778 46.714034 -2.992369 -16.697450 16.536082 -6.467500 0.000000 -58.774500
5.350082 17.120781 -7.585193 176.903659 25.053467 -172.762727 -7.853854 2.931405 1.087139 -24.402824 12.765524 -24.969521 -4.171468 -0.946413 7.245513 0.642524 3.663793 -3.534724 0.464500 -0.000000 -7.374100 12.905800 -2.401517 -1.080861 -3.237410 -14.635439 -9.099358 -1.162704 -2.869934 48.666467 -2.948301 -16.455552 14.727853 -5.943299 -0.000000 -57.361400
5.370699 17.138095 -7.700828 177.030518 24.796616 -172.670626 -7.950783 2.942039 0.980870 -24.267217 13.316174 -24.377648 -4.205406 -0.975967 6.782474 0.526549 2.906493 -3.451402 0.401900 0.000000 -7.714900 12.848736 -2.355503 -0.987696 -2.687487 -13.835944 -10.488016 -1.184177 -2.990835 50.418527 -2.890072 -16.131939 12.845673 -5.383799 -0.000000 -56.252199
5.390413 17.154606 -7.815301 177.164059 24.515722 -172.566284 -8.051869 2.946085 0.890146 -24.093106 13.773240 -23.762121 -4.230875 -1.009258 6.291143 0.420207 2.194815 -3.358248 0.345500 0.000000 -8.067200 12.784855 -2.302757 -0.896351 -2.139009 -13.052082 -11.856036 -1.198460 -3.098126 51.959267 -2.824150 -15.761913 10.957687 -4.824200 0.000001 -55.378200
5.409442 17.170052 -7.928603 177.296422 24.208802 -172.453528 -8.153742 2.943396 0.816344 -23.888279 14.121518 -23.114834 -4.247080 -1.047523 5.770401 0.327009 1.553714 -3.272062 0.295700 -0.000000 -8.427300 12.715700 -2.240630 -0.807385 -1.604822 -12.289595 -13.198706 -1.204522 -3.190673 53.284504 -2.756281 -15.375315 9.118968 -4.289699 0.000000 -54.664400
5.427927 17.184242 -8.040721 177.423993 23.872589 -172.335022 -8.253667 2.934882 0.758401 -23.663476 14.363175 -22.439167 -4.254485 -1.090307 5.229482 0.247750 0.991661 -3.205066 0.252100 -0.000001 -8.792400 12.642542 -2.167914 -0.720398 -1.093584 -11.552300 -14.513089 -1.201930 -3.268039 54.394614 -2.691483 -14.998499 7.371114 -3.797800 0.000000 -54.039100
5.445857 17.197022 -8.151679 177.546067 23.509016 -172.211946 -8.351237 2.920624 0.715141 -23.422461 14.502026 -21.733786 -4.252748 -1.137908 4.664040 0.182986 0.519820 -3.158119 0.215600 0.000000 -9.181500 12.564715 -2.084566 -0.635455 -0.607728 -10.838905 -15.796363 -1.190433 -3.330453 55.292939 -2.632283 -14.643436 5.732837 -3.353500 -0.000001 -53.440100
5.463368 17.208306 -8.261405 177.659910 23.115004 -172.086950 -8.444138 2.902550 0.683517 -23.176934 14.553033 -21.008884 -4.243379 -1.188396 4.087864 0.131082 0.132150 -3.130128 0.185600 0.000001 -9.598200 12.483848 -1.990730 -0.552218 -0.154012 -10.152134 -17.046709 -1.169968 -3.378675 55.986292 -2.580150 -14.316221 4.210605 -2.956500 0.000001 -52.814400
5.480536 17.218057 -8.369762 177.762779 22.690888 -171.963760 -8.531434 2.881195 0.662388 -22.929769 14.517268 -20.259244 -4.225977 -1.241508 3.493777 0.091944 -0.162527 -3.109004 0.163101 0.000000 -10.058700 12.400425 -1.886838 -0.471816 0.262925 -9.491558 -18.258287 -1.140156 -3.413802 56.480194 -2.534243 -14.009703 2.795436 -2.600100 0.000000 -52.124100
5.497709 17.226361 -8.476668 177.855440 22.232103 -171.839530 -8.612029 2.860151 0.644866 -22.695630 14.441454 -19.528739 -4.205781 -1.291482 2.933960 0.059211 -0.414294 -3.099083 0.143899 0.000000 -10.551300 12.315600 -1.774920 -0.389680 0.645687 -8.853690 -19.437600 -1.100636 -3.436180 56.782403 -2.494075 -13.719550 1.475752 -2.278600 0.000000 -51.370200
5.514953 17.233353 -8.582071 177.938400 21.739205 -171.714788 -8.686149 2.839493 0.630150 -22.472410 14.327049 -18.818405 -4.182766 -1.337538 2.408891 0.032070 -0.624554 -3.089978 0.128100 -0.000001 -11.083500 12.229041 -1.656047 -0.305803 0.993309 -8.233912 -20.580287 -1.050556 -3.446567 56.896466 -2.457106 -13.429082 0.232730 -1.983199 -0.000000 -50.555000
5.532320 17.239226 -8.685948 178.013277 21.212318 -171.588356 -8.753786 2.819750 0.616638 -22.259941 14.182219 -18.138454 -4.158007 -1.377880 1.932926 0.008636 -0.806954 -3.078632 0.114700 0.000001 -11.649800 12.140682 -1.531523 -0.218724 1.305656 -7.626219 -21.684334 -0.989126 -3.445356 56.824893 -2.421152 -13.124053 -0.948337 -1.708200 -0.000000 -49.699500
